<?xml version="1.0" encoding="UTF-8" standalone="no"?>
<svg
   xmlns:dc="http://purl.org/dc/elements/1.1/"
   xmlns:cc="http://creativecommons.org/ns#"
   xmlns:rdf="http://www.w3.org/1999/02/22-rdf-syntax-ns#"
   xmlns:svg="http://www.w3.org/2000/svg"
   xmlns="http://www.w3.org/2000/svg"
   version="1.1"
   id="svg4207"
   viewBox="0 0 465.47034 91.962277"
   height="25.953798mm"
   width="131.36607mm">
  <defs
     id="defs4209" />
  <metadata
     id="metadata4212">
    <rdf:RDF>
      <cc:Work
         rdf:about="">
        <dc:format>image/svg+xml</dc:format>
        <dc:type
           rdf:resource="http://purl.org/dc/dcmitype/StillImage" />
        <dc:title></dc:title>
      </cc:Work>
    </rdf:RDF>
  </metadata>
  <g
     transform="translate(-107.26484,-666.73818)"
     id="layer1">
    <g
       id="text3361"
       style="font-style:normal;font-variant:normal;font-weight:500;font-stretch:normal;font-size:56.70308685px;line-height:125%;font-family:'M+ 1p';-inkscape-font-specification:'M+ 1p Medium';letter-spacing:0px;word-spacing:0px;display:inline;fill:#7482cc;fill-opacity:1;stroke:none">
      <g
         id="g4785">
        <path
           d="m 167.93714,711.42022 -26.08342,0 0,-9.75293 37.99107,0 0,43.88818 q -12.58809,6.23734 -27.78451,6.23734 -20.41311,0 -32.66098,-11.45402 -12.13446,-11.56743 -12.13446,-31.07329 0,-19.50586 11.68083,-30.95989 11.79425,-11.56743 31.98054,-11.56743 14.516,0 25.74321,6.91778 l -3.96922,9.07249 q -9.97974,-6.01052 -20.63992,-6.01052 -15.08302,0 -23.58849,8.84568 -8.50546,8.84568 -8.50546,23.70189 0,14.96961 8.95909,23.8153 8.95908,8.73227 24.26892,8.73227 8.16524,0 14.7428,-2.83515 l 0,-27.5577 z"
           style="fill:#555e8d;fill-opacity:1"
           id="path4770" />
        <path
           d="m 199.8096,698.83213 q 7.82502,-8.27865 20.63992,-8.27865 12.8149,0 20.52652,8.27865 7.82502,8.27865 7.82502,22.34102 0,14.06236 -7.82502,22.34101 -7.71162,8.27865 -20.52652,8.27865 -12.8149,0 -20.63992,-8.27865 -7.71162,-8.27865 -7.71162,-22.34101 0,-14.06237 7.71162,-22.34102 z m 8.39205,38.21788 q 4.53625,5.67031 12.24787,5.67031 7.71162,0 12.24787,-5.67031 4.53624,-5.67031 4.53624,-15.87686 0,-10.20656 -4.53624,-15.87687 -4.53625,-5.67031 -12.24787,-5.67031 -7.71162,0 -12.24787,5.67031 -4.53624,5.67031 -4.53624,15.87687 0,10.20655 4.53624,15.87686 z"
           style="fill:#555e8d;fill-opacity:1"
           id="path4772" />
        <path
           d="m 296.34306,721.39996 -5.67031,0 q -10.20655,0 -15.76345,3.51559 -5.4435,3.51559 -5.4435,9.29931 0,4.19603 2.49494,6.69096 2.60834,2.38153 6.80437,2.38153 7.14458,0 12.36127,-4.87646 5.21668,-4.98988 5.21668,-12.13446 l 0,-4.87647 z m -37.99107,13.38193 q 0,-9.86634 8.27865,-15.76346 8.39206,-6.01053 24.04211,-6.01053 l 5.67031,0 0,-0.56703 q 0,-7.14459 -2.94856,-9.97974 -2.83515,-2.83516 -10.09315,-2.83516 -10.77358,0 -19.84608,5.10328 l -1.70109,-9.07249 q 9.52612,-5.10328 21.54717,-5.10328 12.8149,0 18.59861,5.21668 5.78372,5.10328 5.78372,16.33049 l 0,22.68124 q 0,8.05184 1.70109,15.87686 l -10.77358,0 q -0.90725,-4.98987 -1.02066,-9.07249 l -0.22681,0 q -3.17537,4.76306 -8.84568,7.48481 -5.55691,2.72174 -12.58809,2.72174 -8.05184,0 -12.8149,-4.53624 -4.76306,-4.53625 -4.76306,-12.47468 z"
           style="fill:#555e8d;fill-opacity:1"
           id="path4774" />
        <path
           d="m 342.41963,693.95567 21.32036,0 0,9.07249 -21.32036,0 0,27.21748 q 0,7.3714 1.92791,9.97974 1.9279,2.49494 6.91777,2.49494 5.67031,0 10.20656,-2.04131 l 1.70109,8.84568 q -6.46415,2.26812 -13.60874,2.26812 -9.97974,0 -14.40258,-4.42284 -4.30944,-4.42284 -4.30944,-14.85621 l 0,-29.4856 -12.47468,0 0,-9.07249 12.47468,0 0,-21.54718 11.56743,0 0,21.54718 z"
           style="fill:#555e8d;fill-opacity:1"
           id="path4776" />
        <path
           d="m 427.19428,732.73045 -0.1134,0 q -5.4435,7.25799 -13.94896,7.25799 -8.05184,0 -13.15512,-6.23734 -5.10328,-6.23734 -5.10328,-17.57795 0,-11.56743 4.87647,-17.69137 4.87647,-6.12393 13.38193,-6.12393 8.39205,0 13.94896,7.03118 l 0.22681,0 0,-6.12393 12.13446,0 0,36.7436 10.09315,0 q 2.60834,-6.46415 2.60834,-13.83555 0,-14.96962 -9.2993,-24.15552 -9.1859,-9.2993 -24.15552,-9.2993 -14.7428,0 -24.15551,9.41271 -9.29931,9.2993 -9.29931,24.04211 0,14.7428 9.29931,24.15551 9.41271,9.29931 24.15551,9.29931 11.79424,0 20.07289,-6.12393 l 5.4435,7.25799 q -10.66018,7.93843 -25.51639,7.93843 -18.03158,0 -30.27945,-11.90765 -12.24786,-11.90764 -12.24786,-30.61966 0,-18.59862 12.02105,-30.50626 12.13446,-12.02106 30.50626,-12.02106 18.59861,0 30.50626,11.90765 12.02106,11.79424 12.02106,30.61967 0,12.58808 -6.12394,22.90804 l -27.5577,0 -0.34022,-6.35074 z m -20.07289,-16.5573 q 0,6.69096 2.72175,10.31996 2.72175,3.629 7.03118,3.629 4.30944,0 7.03118,-3.51559 2.72175,-3.5156 2.72175,-9.97975 l 0,-0.90725 q 0,-6.35074 -2.72175,-9.86633 -2.72174,-3.5156 -7.03118,-3.5156 -9.75293,0 -9.75293,13.83556 z"
           style="fill:#aa0000;fill-opacity:1"
           id="path4778" />
        <path
           d="m 494.01533,699.62597 q -11.34062,0 -11.34062,7.37141 0,3.51559 2.60834,5.5569 2.72175,1.9279 9.29931,2.94856 11.90765,1.8145 17.01093,6.46415 5.10327,4.53625 5.10327,12.8149 0,7.93843 -6.01052,12.47468 -5.89712,4.53624 -16.67071,4.53624 -12.58809,0 -22.68124,-5.6703 l 2.26813,-9.0725 q 9.2993,5.67031 20.41311,5.67031 11.1138,0 11.1138,-7.93843 0,-3.85581 -2.60834,-5.89712 -2.49493,-2.15472 -9.07249,-3.17538 -11.68084,-1.9279 -16.89752,-6.35074 -5.21669,-4.53625 -5.21669,-12.36127 0,-7.48481 5.89713,-11.90765 5.89712,-4.53625 16.78411,-4.53625 11.22721,0 20.41311,4.53625 l -2.26812,9.07249 q -8.39206,-4.53625 -18.14499,-4.53625 z"
           style="fill:#555e8d;fill-opacity:1"
           id="path4780" />
        <path
           d="m 550.05393,699.62597 q -11.34061,0 -11.34061,7.37141 0,3.51559 2.60834,5.5569 2.72175,1.9279 9.2993,2.94856 11.90765,1.8145 17.01093,6.46415 5.10328,4.53625 5.10328,12.8149 0,7.93843 -6.01053,12.47468 -5.89712,4.53624 -16.67071,4.53624 -12.58808,0 -22.68123,-5.6703 l 2.26812,-9.0725 q 9.29931,5.67031 20.41311,5.67031 11.11381,0 11.11381,-7.93843 0,-3.85581 -2.60834,-5.89712 -2.49494,-2.15472 -9.0725,-3.17538 -11.68083,-1.9279 -16.89752,-6.35074 -5.21668,-4.53625 -5.21668,-12.36127 0,-7.48481 5.89712,-11.90765 5.89712,-4.53625 16.78411,-4.53625 11.22722,0 20.41312,4.53625 l -2.26813,9.07249 q -8.39205,-4.53625 -18.14499,-4.53625 z"
           style="fill:#555e8d;fill-opacity:1"
           id="path4782" />
      </g>
    </g>
  </g>
</svg>
