<svg xmlns="http://www.w3.org/2000/svg" width="26.419" height="26.419" viewBox="0 0 26.419 26.419">
<g>
<path style="line-height:125%;-inkscape-font-specification:'M+ 1p Medium'" d="M14.86 17.206h-.032q-1.585 2.113-4.062 2.113-2.345 0-3.831-1.816-1.486-1.817-1.486-5.119 0-3.368 1.42-5.152 1.42-1.783 3.897-1.783 2.444 0 4.062 2.047h.066V5.713h3.533v10.7h2.94q.76-1.882.76-4.029 0-4.36-2.709-7.034-2.675-2.708-7.034-2.708-4.293 0-7.034 2.74-2.708 2.709-2.708 7.002 0 4.293 2.708 7.034 2.74 2.708 7.034 2.708 3.434 0 5.845-1.783l1.585 2.113q-3.104 2.312-7.43 2.312-5.25 0-8.817-3.468Q0 17.833 0 12.384q0-5.416 3.5-8.883Q7.035 0 12.385 0q5.416 0 8.883 3.468 3.501 3.434 3.501 8.916 0 3.666-1.783 6.67H14.96l-.1-1.848zm-5.845-4.822q0 1.948.793 3.005t2.048 1.057q1.254 0 2.047-1.024.793-1.024.793-2.906v-.264q0-1.85-.793-2.873-.793-1.024-2.047-1.024-2.84 0-2.84 4.029z" font-weight="500" font-size="16.512" font-family="M+ 1p" letter-spacing="0" word-spacing="0" fill="#a00"/>
</g>
</svg>
